<svg xmlns="http://www.w3.org/2000/svg" viewBox="0 0 400 260" role="img" aria-label="Pazara giriş">
  <defs>
    <linearGradient id="mktBg" x1="0" y1="0" x2="0" y2="1">
      <stop offset="0%" stop-color="#f8fafc"/>
      <stop offset="100%" stop-color="#eef2f7"/>
    </linearGradient>
  </defs>
  <rect width="400" height="260" fill="url(#mktBg)"/>

  <!-- harita -->
  <g fill="none" stroke="#0f172a" stroke-width="2.5" stroke-linejoin="round">
    <path d="M42 84l58-24 52 14 46-16 62 20 40 44-16 62-58 18-46-22-52 12-58-20z" opacity=".18"/>
  </g>
  <g fill="#0f172a" opacity=".12">
    <path d="M42 84l58-24 12 34-18 22z"/>
    <path d="M152 74l52 14 8 30-46 16z"/>
    <path d="M258 58l62 20 8 46-62 8z"/>
  </g>

  <!-- hedef -->
  <g transform="translate(292 88)">
    <circle r="34" fill="#ffffff" stroke="#0f172a" stroke-width="3"/>
    <circle r="22" fill="none" stroke="#0f172a" stroke-width="2.5" opacity=".35"/>
    <circle r="10" fill="#f97316"/>
    <path d="M0-34v-14M0 34v14M-34 0h-14M34 0h14" stroke="#0f172a" stroke-width="2.5" stroke-linecap="round" opacity=".4"/>
  </g>

  <!-- ulaşım rotası -->
  <path d="M96 176c34-6 58-26 78-42 22-18 44-24 74-26" fill="none" stroke="#f97316" stroke-width="3" stroke-linecap="round" stroke-dasharray="1 9"/>

  <!-- distribütör ağı -->
  <g>
    <circle cx="96" cy="176" r="14" fill="#0f172a"/>
    <circle cx="174" cy="134" r="10" fill="#ffffff" stroke="#0f172a" stroke-width="3"/>
    <circle cx="248" cy="108" r="10" fill="#ffffff" stroke="#0f172a" stroke-width="3"/>
    <g stroke="#0f172a" stroke-width="2" opacity=".4">
      <path d="M108 172l56-32M182 130l56-18"/>
    </g>
  </g>

  <!-- giriş kapısı -->
  <g transform="translate(46 200)">
    <rect width="112" height="34" rx="17" fill="#0f172a"/>
    <path d="M20 17h20v14l14-14h14l-13 13 14 15H55L42 22v12H20z" fill="#f97316"/>
    <path d="M76 17h14" stroke="#ffffff" stroke-width="3" stroke-linecap="round" opacity=".6"/>
  </g>
</svg>
