<svg xmlns="http://www.w3.org/2000/svg" viewBox="0 0 400 260" role="img" aria-label="Femtech ve sağlık teknolojileri">
  <defs>
    <linearGradient id="ftBg" x1="0" y1="0" x2="0" y2="1">
      <stop offset="0%" stop-color="#f8fafc"/>
      <stop offset="100%" stop-color="#eef2f7"/>
    </linearGradient>
  </defs>
  <rect width="400" height="260" fill="url(#ftBg)"/>

  <!-- nabız halkası -->
  <g transform="translate(128 116)">
    <circle r="72" fill="#ffffff" stroke="#0f172a" stroke-width="3"/>
    <circle r="72" fill="none" stroke="#f97316" stroke-width="3"
            stroke-dasharray="20 432" stroke-linecap="round" transform="rotate(-90)"/>
    <path d="M-46 0h28l12-26 16 52 12-34 8 8h26" fill="none"
          stroke="#0f172a" stroke-width="3.5" stroke-linecap="round" stroke-linejoin="round"/>
  </g>

  <!-- molekül -->
  <g stroke="#0f172a" stroke-width="3" fill="#ffffff">
    <path d="M292 66l42 24M334 90v48M334 138l-42 24M250 162l-42-24M208 138V90M250 66l42 24" fill="none"/>
    <circle cx="292" cy="66" r="16"/>
    <circle cx="334" cy="114" r="16"/>
    <circle cx="292" cy="162" r="16"/>
    <circle cx="208" cy="114" r="16"/>
  </g>
  <circle cx="292" cy="114" r="22" fill="#f97316"/>
  <circle cx="292" cy="114" r="8" fill="#ffffff"/>

  <!-- analiz onayı -->
  <g transform="translate(60 214)">
    <circle r="16" fill="#0f172a"/>
    <path d="M-6 0l4.5 5.5L8-7" fill="none" stroke="#f97316" stroke-width="3" stroke-linecap="round" stroke-linejoin="round"/>
  </g>
  <g transform="translate(100 214)">
    <rect x="0" y="-13" width="26" height="26" rx="7" fill="none" stroke="#0f172a" stroke-width="2.5" opacity=".35"/>
    <path d="M7 0l4 5 8-10" fill="none" stroke="#0f172a" stroke-width="2.5" stroke-linecap="round" stroke-linejoin="round" opacity=".5"/>
  </g>

  <!-- uyum çizgileri -->
  <g stroke="#cbd5e1" stroke-width="2" stroke-linecap="round">
    <path d="M34 44h30M34 54h18M336 210h30M348 220h18"/>
  </g>
</svg>
